<mxfile host="app.diagrams.net" agent="Mozilla/5.0 (Windows NT 10.0; Win64; x64) AppleWebKit/537.36 (KHTML, like Gecko) Chrome/131.0.0.0 Safari/537.36" version="24.9.1">
  <diagram id="XOnag8xoFiaOOmy9v_93" name="Page-1">
    <mxGraphModel dx="1674" dy="824" grid="1" gridSize="10" guides="1" tooltips="1" connect="1" arrows="1" fold="1" page="1" pageScale="1" pageWidth="2336" pageHeight="1654" math="0" shadow="0">
      <root>
        <mxCell id="_vKOgibNYJb6RkX7hGH7-0" />
        <mxCell id="_vKOgibNYJb6RkX7hGH7-1" parent="_vKOgibNYJb6RkX7hGH7-0" />
        <mxCell id="_vKOgibNYJb6RkX7hGH7-7" value="Pl&lt;span style=&quot;background-color: initial;&quot;&gt;ayer&lt;/span&gt;&lt;div&gt;&lt;div&gt;&lt;br&gt;&lt;/div&gt;&lt;/div&gt;" style="shape=umlActor;verticalLabelPosition=bottom;verticalAlign=top;html=1;fontFamily=Helvetica;fontSize=12;align=center;strokeColor=#82b366;strokeWidth=1;fillColor=#d5e8d4;" parent="_vKOgibNYJb6RkX7hGH7-1" vertex="1">
          <mxGeometry x="850" y="610" width="30" height="60" as="geometry" />
        </mxCell>
        <mxCell id="_vKOgibNYJb6RkX7hGH7-8" value="Update account details" style="ellipse;whiteSpace=wrap;html=1;rounded=1;strokeWidth=1;fontSize=12;fillColor=#d5e8d4;strokeColor=#82b366;" parent="_vKOgibNYJb6RkX7hGH7-1" vertex="1">
          <mxGeometry x="980" y="1394.25" width="120" height="50" as="geometry" />
        </mxCell>
        <mxCell id="_vKOgibNYJb6RkX7hGH7-73" style="edgeStyle=none;rounded=0;jumpStyle=arc;orthogonalLoop=1;jettySize=auto;html=1;dashed=1;dashPattern=1 4;fontSize=12;fontColor=#000000;" parent="_vKOgibNYJb6RkX7hGH7-1" source="_vKOgibNYJb6RkX7hGH7-9" target="_vKOgibNYJb6RkX7hGH7-8" edge="1">
          <mxGeometry relative="1" as="geometry" />
        </mxCell>
        <mxCell id="_vKOgibNYJb6RkX7hGH7-74" value="extends" style="edgeLabel;html=1;align=center;verticalAlign=middle;resizable=0;points=[];" parent="_vKOgibNYJb6RkX7hGH7-73" vertex="1" connectable="0">
          <mxGeometry x="0.1968" y="1" relative="1" as="geometry">
            <mxPoint x="18.81" y="-7.78" as="offset" />
          </mxGeometry>
        </mxCell>
        <mxCell id="_vKOgibNYJb6RkX7hGH7-105" style="edgeStyle=none;rounded=0;jumpStyle=arc;orthogonalLoop=1;jettySize=auto;html=1;dashed=1;dashPattern=1 4;fontSize=12;fontColor=#000000;" parent="_vKOgibNYJb6RkX7hGH7-1" source="_vKOgibNYJb6RkX7hGH7-9" target="_vKOgibNYJb6RkX7hGH7-58" edge="1">
          <mxGeometry relative="1" as="geometry">
            <Array as="points">
              <mxPoint x="1380" y="1379.25" />
            </Array>
          </mxGeometry>
        </mxCell>
        <mxCell id="_vKOgibNYJb6RkX7hGH7-106" value="precedes" style="edgeLabel;html=1;align=center;verticalAlign=middle;resizable=0;points=[];fontSize=12;" parent="_vKOgibNYJb6RkX7hGH7-105" vertex="1" connectable="0">
          <mxGeometry x="0.2226" y="2" relative="1" as="geometry">
            <mxPoint x="-150.88" y="-29.6" as="offset" />
          </mxGeometry>
        </mxCell>
        <mxCell id="_vKOgibNYJb6RkX7hGH7-9" value="Add delivery address" style="ellipse;whiteSpace=wrap;html=1;rounded=1;strokeWidth=1;fontSize=12;fillColor=#d5e8d4;strokeColor=#82b366;" parent="_vKOgibNYJb6RkX7hGH7-1" vertex="1">
          <mxGeometry x="1180" y="1354.25" width="120" height="50" as="geometry" />
        </mxCell>
        <mxCell id="_vKOgibNYJb6RkX7hGH7-75" style="edgeStyle=none;rounded=0;jumpStyle=arc;orthogonalLoop=1;jettySize=auto;html=1;dashed=1;dashPattern=1 4;fontSize=12;fontColor=#000000;" parent="_vKOgibNYJb6RkX7hGH7-1" source="_vKOgibNYJb6RkX7hGH7-10" target="_vKOgibNYJb6RkX7hGH7-9" edge="1">
          <mxGeometry relative="1" as="geometry" />
        </mxCell>
        <mxCell id="_vKOgibNYJb6RkX7hGH7-76" value="extends" style="edgeLabel;html=1;align=center;verticalAlign=middle;resizable=0;points=[];" parent="_vKOgibNYJb6RkX7hGH7-75" vertex="1" connectable="0">
          <mxGeometry x="0.1401" relative="1" as="geometry">
            <mxPoint as="offset" />
          </mxGeometry>
        </mxCell>
        <mxCell id="_vKOgibNYJb6RkX7hGH7-10" value="Update delivery address" style="ellipse;whiteSpace=wrap;html=1;rounded=1;strokeWidth=1;fontSize=12;fillColor=#d5e8d4;strokeColor=#82b366;" parent="_vKOgibNYJb6RkX7hGH7-1" vertex="1">
          <mxGeometry x="1310" y="1419.25" width="120" height="50" as="geometry" />
        </mxCell>
        <mxCell id="_vKOgibNYJb6RkX7hGH7-77" style="edgeStyle=none;rounded=0;jumpStyle=arc;orthogonalLoop=1;jettySize=auto;html=1;dashed=1;dashPattern=1 4;fontSize=12;fontColor=#000000;" parent="_vKOgibNYJb6RkX7hGH7-1" source="_vKOgibNYJb6RkX7hGH7-12" target="_vKOgibNYJb6RkX7hGH7-10" edge="1">
          <mxGeometry relative="1" as="geometry" />
        </mxCell>
        <mxCell id="_vKOgibNYJb6RkX7hGH7-78" value="extends" style="edgeLabel;html=1;align=center;verticalAlign=middle;resizable=0;points=[];" parent="_vKOgibNYJb6RkX7hGH7-77" vertex="1" connectable="0">
          <mxGeometry x="-0.0124" relative="1" as="geometry">
            <mxPoint as="offset" />
          </mxGeometry>
        </mxCell>
        <mxCell id="_vKOgibNYJb6RkX7hGH7-12" value="Delete delivery address" style="ellipse;whiteSpace=wrap;html=1;rounded=1;strokeWidth=1;fontSize=12;fillColor=#d5e8d4;strokeColor=#82b366;" parent="_vKOgibNYJb6RkX7hGH7-1" vertex="1">
          <mxGeometry x="1450" y="1474.25" width="120" height="50" as="geometry" />
        </mxCell>
        <mxCell id="_vKOgibNYJb6RkX7hGH7-80" style="rounded=0;jumpStyle=arc;orthogonalLoop=1;jettySize=auto;html=1;fontSize=12;fontColor=#000000;dashed=1;dashPattern=1 4;" parent="_vKOgibNYJb6RkX7hGH7-1" source="_vKOgibNYJb6RkX7hGH7-14" target="_vKOgibNYJb6RkX7hGH7-8" edge="1">
          <mxGeometry relative="1" as="geometry" />
        </mxCell>
        <mxCell id="_vKOgibNYJb6RkX7hGH7-81" value="extends" style="edgeLabel;html=1;align=center;verticalAlign=middle;resizable=0;points=[];" parent="_vKOgibNYJb6RkX7hGH7-80" vertex="1" connectable="0">
          <mxGeometry x="-0.4243" relative="1" as="geometry">
            <mxPoint y="-1" as="offset" />
          </mxGeometry>
        </mxCell>
        <mxCell id="_vKOgibNYJb6RkX7hGH7-14" value="Add payment method" style="ellipse;whiteSpace=wrap;html=1;rounded=1;strokeWidth=1;fontSize=12;fillColor=#d5e8d4;strokeColor=#82b366;" parent="_vKOgibNYJb6RkX7hGH7-1" vertex="1">
          <mxGeometry x="1160" y="1469.25" width="120" height="50" as="geometry" />
        </mxCell>
        <mxCell id="_vKOgibNYJb6RkX7hGH7-56" style="edgeStyle=none;rounded=0;orthogonalLoop=1;jettySize=auto;html=1;fontSize=12;fontColor=#000000;dashed=1;dashPattern=1 4;startArrow=classic;startFill=1;endArrow=none;endFill=0;" parent="_vKOgibNYJb6RkX7hGH7-1" source="_vKOgibNYJb6RkX7hGH7-17" target="_vKOgibNYJb6RkX7hGH7-14" edge="1">
          <mxGeometry relative="1" as="geometry" />
        </mxCell>
        <mxCell id="_vKOgibNYJb6RkX7hGH7-57" value="precedes" style="edgeLabel;html=1;align=center;verticalAlign=middle;resizable=0;points=[];" parent="_vKOgibNYJb6RkX7hGH7-56" vertex="1" connectable="0">
          <mxGeometry x="-0.135" y="-2" relative="1" as="geometry">
            <mxPoint as="offset" />
          </mxGeometry>
        </mxCell>
        <mxCell id="_vKOgibNYJb6RkX7hGH7-107" style="edgeStyle=none;rounded=0;jumpStyle=arc;orthogonalLoop=1;jettySize=auto;html=1;dashed=1;dashPattern=1 4;fontSize=12;fontColor=#000000;" parent="_vKOgibNYJb6RkX7hGH7-1" source="_vKOgibNYJb6RkX7hGH7-17" target="_vKOgibNYJb6RkX7hGH7-18" edge="1">
          <mxGeometry relative="1" as="geometry" />
        </mxCell>
        <mxCell id="_vKOgibNYJb6RkX7hGH7-108" value="precedes" style="edgeLabel;html=1;align=center;verticalAlign=middle;resizable=0;points=[];fontSize=12;" parent="_vKOgibNYJb6RkX7hGH7-107" vertex="1" connectable="0">
          <mxGeometry x="-0.6637" y="-1" relative="1" as="geometry">
            <mxPoint as="offset" />
          </mxGeometry>
        </mxCell>
        <mxCell id="_vKOgibNYJb6RkX7hGH7-17" value="Enter payment details" style="ellipse;whiteSpace=wrap;html=1;rounded=1;strokeWidth=1;fontSize=12;fillColor=#d5e8d4;strokeColor=#82b366;" parent="_vKOgibNYJb6RkX7hGH7-1" vertex="1">
          <mxGeometry x="1290" y="1536.25" width="120" height="50" as="geometry" />
        </mxCell>
        <mxCell id="_vKOgibNYJb6RkX7hGH7-18" value="Verify credit card details" style="ellipse;whiteSpace=wrap;html=1;rounded=1;strokeWidth=1;fontSize=12;fillColor=#dae8fc;strokeColor=#6c8ebf;" parent="_vKOgibNYJb6RkX7hGH7-1" vertex="1">
          <mxGeometry x="1630" y="1739.25" width="120" height="50" as="geometry" />
        </mxCell>
        <mxCell id="_vKOgibNYJb6RkX7hGH7-69" style="edgeStyle=none;rounded=0;jumpStyle=arc;orthogonalLoop=1;jettySize=auto;html=1;dashed=1;dashPattern=1 4;fontSize=12;fontColor=#000000;" parent="_vKOgibNYJb6RkX7hGH7-1" source="_vKOgibNYJb6RkX7hGH7-25" target="_vKOgibNYJb6RkX7hGH7-8" edge="1">
          <mxGeometry relative="1" as="geometry" />
        </mxCell>
        <mxCell id="_vKOgibNYJb6RkX7hGH7-70" value="extends" style="edgeLabel;html=1;align=center;verticalAlign=middle;resizable=0;points=[];" parent="_vKOgibNYJb6RkX7hGH7-69" vertex="1" connectable="0">
          <mxGeometry x="-0.3113" relative="1" as="geometry">
            <mxPoint x="1" as="offset" />
          </mxGeometry>
        </mxCell>
        <mxCell id="_vKOgibNYJb6RkX7hGH7-98" style="edgeStyle=none;rounded=0;jumpStyle=arc;orthogonalLoop=1;jettySize=auto;html=1;dashed=1;dashPattern=1 4;fontSize=12;fontColor=#000000;" parent="_vKOgibNYJb6RkX7hGH7-1" source="_vKOgibNYJb6RkX7hGH7-25" target="_vKOgibNYJb6RkX7hGH7-27" edge="1">
          <mxGeometry relative="1" as="geometry" />
        </mxCell>
        <mxCell id="_vKOgibNYJb6RkX7hGH7-99" value="precedes" style="edgeLabel;html=1;align=center;verticalAlign=middle;resizable=0;points=[];fontSize=12;" parent="_vKOgibNYJb6RkX7hGH7-98" vertex="1" connectable="0">
          <mxGeometry x="-0.7135" y="-2" relative="1" as="geometry">
            <mxPoint as="offset" />
          </mxGeometry>
        </mxCell>
        <mxCell id="_vKOgibNYJb6RkX7hGH7-25" value="Change email address (username)" style="ellipse;whiteSpace=wrap;html=1;rounded=1;strokeWidth=1;fontSize=12;fillColor=#d5e8d4;strokeColor=#82b366;" parent="_vKOgibNYJb6RkX7hGH7-1" vertex="1">
          <mxGeometry x="1220" y="1254.25" width="120" height="50" as="geometry" />
        </mxCell>
        <mxCell id="_vKOgibNYJb6RkX7hGH7-27" value="Verify email is unique" style="ellipse;whiteSpace=wrap;html=1;rounded=1;strokeWidth=1;fontSize=12;fillColor=#dae8fc;strokeColor=#6c8ebf;" parent="_vKOgibNYJb6RkX7hGH7-1" vertex="1">
          <mxGeometry x="1580" y="1264.25" width="120" height="50" as="geometry" />
        </mxCell>
        <mxCell id="YlUTerM2iUDrsfmBJ7mQ-5" style="edgeStyle=none;rounded=0;orthogonalLoop=1;jettySize=auto;html=1;exitX=1;exitY=0;exitDx=0;exitDy=0;entryX=0;entryY=0.5;entryDx=0;entryDy=0;" edge="1" parent="_vKOgibNYJb6RkX7hGH7-1" source="_vKOgibNYJb6RkX7hGH7-29" target="YlUTerM2iUDrsfmBJ7mQ-4">
          <mxGeometry relative="1" as="geometry" />
        </mxCell>
        <mxCell id="_vKOgibNYJb6RkX7hGH7-29" value="Modifier le dé choisi" style="ellipse;whiteSpace=wrap;html=1;rounded=1;strokeWidth=1;fontSize=12;fillColor=#dae8fc;strokeColor=#6c8ebf;" parent="_vKOgibNYJb6RkX7hGH7-1" vertex="1">
          <mxGeometry x="1120" y="470" width="120" height="50" as="geometry" />
        </mxCell>
        <mxCell id="_vKOgibNYJb6RkX7hGH7-35" value="Customer database" style="shape=cylinder3;whiteSpace=wrap;html=1;boundedLbl=1;backgroundOutline=1;size=15;rounded=1;strokeWidth=1;fillColor=#dae8fc;strokeColor=#6c8ebf;" parent="_vKOgibNYJb6RkX7hGH7-1" vertex="1">
          <mxGeometry x="1885" y="1499.25" width="60" height="80" as="geometry" />
        </mxCell>
        <mxCell id="_vKOgibNYJb6RkX7hGH7-36" style="edgeStyle=none;rounded=0;orthogonalLoop=1;jettySize=auto;html=1;exitX=0;exitY=1;exitDx=0;exitDy=-15;exitPerimeter=0;dashed=1;dashPattern=1 4;fontSize=12;fontColor=#000000;" parent="_vKOgibNYJb6RkX7hGH7-1" source="_vKOgibNYJb6RkX7hGH7-35" target="_vKOgibNYJb6RkX7hGH7-35" edge="1">
          <mxGeometry relative="1" as="geometry" />
        </mxCell>
        <mxCell id="_vKOgibNYJb6RkX7hGH7-37" value="System" style="shape=umlActor;verticalLabelPosition=bottom;verticalAlign=top;html=1;outlineConnect=0;rounded=1;strokeWidth=1;fillColor=#dae8fc;strokeColor=#6c8ebf;" parent="_vKOgibNYJb6RkX7hGH7-1" vertex="1">
          <mxGeometry x="1835" y="1609.25" width="30" height="60" as="geometry" />
        </mxCell>
        <mxCell id="_vKOgibNYJb6RkX7hGH7-42" style="edgeStyle=none;rounded=0;orthogonalLoop=1;jettySize=auto;html=1;dashed=1;dashPattern=1 4;fontSize=12;fontColor=#000000;" parent="_vKOgibNYJb6RkX7hGH7-1" source="_vKOgibNYJb6RkX7hGH7-40" target="_vKOgibNYJb6RkX7hGH7-8" edge="1">
          <mxGeometry relative="1" as="geometry" />
        </mxCell>
        <mxCell id="_vKOgibNYJb6RkX7hGH7-43" value="includes" style="edgeLabel;html=1;align=center;verticalAlign=middle;resizable=0;points=[];" parent="_vKOgibNYJb6RkX7hGH7-42" vertex="1" connectable="0">
          <mxGeometry x="-0.2399" y="1" relative="1" as="geometry">
            <mxPoint x="-1" y="-9" as="offset" />
          </mxGeometry>
        </mxCell>
        <mxCell id="_vKOgibNYJb6RkX7hGH7-94" style="edgeStyle=none;rounded=0;jumpStyle=arc;orthogonalLoop=1;jettySize=auto;html=1;dashed=1;dashPattern=1 4;fontSize=12;fontColor=#000000;" parent="_vKOgibNYJb6RkX7hGH7-1" source="_vKOgibNYJb6RkX7hGH7-40" target="_vKOgibNYJb6RkX7hGH7-25" edge="1">
          <mxGeometry relative="1" as="geometry" />
        </mxCell>
        <mxCell id="_vKOgibNYJb6RkX7hGH7-95" value="includes" style="edgeLabel;html=1;align=center;verticalAlign=middle;resizable=0;points=[];fontSize=12;" parent="_vKOgibNYJb6RkX7hGH7-94" vertex="1" connectable="0">
          <mxGeometry x="-0.4653" y="2" relative="1" as="geometry">
            <mxPoint x="15.21" as="offset" />
          </mxGeometry>
        </mxCell>
        <mxCell id="_vKOgibNYJb6RkX7hGH7-40" value="Register" style="ellipse;whiteSpace=wrap;html=1;rounded=1;strokeWidth=1;fontSize=12;fillColor=#d5e8d4;strokeColor=#82b366;" parent="_vKOgibNYJb6RkX7hGH7-1" vertex="1">
          <mxGeometry x="1000" y="1294.25" width="120" height="50" as="geometry" />
        </mxCell>
        <mxCell id="_vKOgibNYJb6RkX7hGH7-96" style="edgeStyle=none;rounded=0;jumpStyle=arc;orthogonalLoop=1;jettySize=auto;html=1;dashed=1;dashPattern=1 4;fontSize=12;fontColor=#000000;" parent="_vKOgibNYJb6RkX7hGH7-1" source="_vKOgibNYJb6RkX7hGH7-41" target="_vKOgibNYJb6RkX7hGH7-86" edge="1">
          <mxGeometry relative="1" as="geometry">
            <Array as="points">
              <mxPoint x="1170" y="1664.25" />
              <mxPoint x="1550" y="1664.25" />
              <mxPoint x="1610" y="1424.25" />
              <mxPoint x="1620" y="1404.25" />
            </Array>
          </mxGeometry>
        </mxCell>
        <mxCell id="_vKOgibNYJb6RkX7hGH7-97" value="precedes" style="edgeLabel;html=1;align=center;verticalAlign=middle;resizable=0;points=[];fontSize=12;" parent="_vKOgibNYJb6RkX7hGH7-96" vertex="1" connectable="0">
          <mxGeometry x="-0.8699" y="3" relative="1" as="geometry">
            <mxPoint as="offset" />
          </mxGeometry>
        </mxCell>
        <mxCell id="_vKOgibNYJb6RkX7hGH7-113" style="edgeStyle=none;rounded=0;jumpStyle=arc;orthogonalLoop=1;jettySize=auto;html=1;dashed=1;dashPattern=1 4;startArrow=none;startFill=0;endArrow=classic;endFill=1;fontSize=12;fontColor=#000000;" parent="_vKOgibNYJb6RkX7hGH7-1" source="_vKOgibNYJb6RkX7hGH7-41" target="_vKOgibNYJb6RkX7hGH7-44" edge="1">
          <mxGeometry relative="1" as="geometry" />
        </mxCell>
        <mxCell id="_vKOgibNYJb6RkX7hGH7-114" value="precedes" style="edgeLabel;html=1;align=center;verticalAlign=middle;resizable=0;points=[];fontSize=12;" parent="_vKOgibNYJb6RkX7hGH7-113" vertex="1" connectable="0">
          <mxGeometry x="0.0983" y="1" relative="1" as="geometry">
            <mxPoint as="offset" />
          </mxGeometry>
        </mxCell>
        <mxCell id="_vKOgibNYJb6RkX7hGH7-115" style="edgeStyle=none;rounded=0;jumpStyle=arc;orthogonalLoop=1;jettySize=auto;html=1;dashed=1;dashPattern=1 4;startArrow=none;startFill=0;endArrow=classic;endFill=1;fontSize=12;fontColor=#000000;" parent="_vKOgibNYJb6RkX7hGH7-1" source="_vKOgibNYJb6RkX7hGH7-41" target="_vKOgibNYJb6RkX7hGH7-8" edge="1">
          <mxGeometry relative="1" as="geometry">
            <Array as="points">
              <mxPoint x="1140" y="1570.25" />
              <mxPoint x="1130" y="1504.25" />
              <mxPoint x="1050" y="1454.25" />
            </Array>
          </mxGeometry>
        </mxCell>
        <mxCell id="_vKOgibNYJb6RkX7hGH7-116" value="precedes" style="edgeLabel;html=1;align=center;verticalAlign=middle;resizable=0;points=[];fontSize=12;" parent="_vKOgibNYJb6RkX7hGH7-115" vertex="1" connectable="0">
          <mxGeometry x="-0.6434" y="-1" relative="1" as="geometry">
            <mxPoint as="offset" />
          </mxGeometry>
        </mxCell>
        <mxCell id="_vKOgibNYJb6RkX7hGH7-41" value="Login" style="ellipse;whiteSpace=wrap;html=1;rounded=1;strokeWidth=1;fontSize=12;fillColor=#d5e8d4;strokeColor=#82b366;" parent="_vKOgibNYJb6RkX7hGH7-1" vertex="1">
          <mxGeometry x="1000" y="1569.25" width="120" height="50" as="geometry" />
        </mxCell>
        <mxCell id="_vKOgibNYJb6RkX7hGH7-44" value="View account" style="ellipse;whiteSpace=wrap;html=1;rounded=1;strokeWidth=1;fontSize=12;fillColor=#d5e8d4;strokeColor=#82b366;" parent="_vKOgibNYJb6RkX7hGH7-1" vertex="1">
          <mxGeometry x="990" y="1479.25" width="120" height="50" as="geometry" />
        </mxCell>
        <mxCell id="_vKOgibNYJb6RkX7hGH7-92" style="edgeStyle=none;rounded=0;jumpStyle=arc;orthogonalLoop=1;jettySize=auto;html=1;dashed=1;dashPattern=1 4;fontSize=12;fontColor=#000000;startArrow=classic;startFill=1;endArrow=none;endFill=0;" parent="_vKOgibNYJb6RkX7hGH7-1" source="_vKOgibNYJb6RkX7hGH7-49" target="_vKOgibNYJb6RkX7hGH7-29" edge="1">
          <mxGeometry relative="1" as="geometry" />
        </mxCell>
        <mxCell id="_vKOgibNYJb6RkX7hGH7-93" value="extends" style="edgeLabel;html=1;align=center;verticalAlign=middle;resizable=0;points=[];fontSize=12;" parent="_vKOgibNYJb6RkX7hGH7-92" vertex="1" connectable="0">
          <mxGeometry x="-0.7776" relative="1" as="geometry">
            <mxPoint x="32" y="-10" as="offset" />
          </mxGeometry>
        </mxCell>
        <mxCell id="YlUTerM2iUDrsfmBJ7mQ-13" style="edgeStyle=none;rounded=0;orthogonalLoop=1;jettySize=auto;html=1;exitX=0.5;exitY=0;exitDx=0;exitDy=0;entryX=0.5;entryY=1;entryDx=0;entryDy=0;" edge="1" parent="_vKOgibNYJb6RkX7hGH7-1" source="_vKOgibNYJb6RkX7hGH7-49" target="YlUTerM2iUDrsfmBJ7mQ-12">
          <mxGeometry relative="1" as="geometry" />
        </mxCell>
        <mxCell id="_vKOgibNYJb6RkX7hGH7-49" value="choisir un dé" style="ellipse;whiteSpace=wrap;html=1;rounded=1;strokeWidth=1;fontSize=12;fillColor=#d5e8d4;strokeColor=#82b366;" parent="_vKOgibNYJb6RkX7hGH7-1" vertex="1">
          <mxGeometry x="930" y="510" width="120" height="50" as="geometry" />
        </mxCell>
        <mxCell id="_vKOgibNYJb6RkX7hGH7-50" value="Third-party payment &lt;br&gt;verification service" style="shape=umlActor;verticalLabelPosition=bottom;verticalAlign=top;html=1;outlineConnect=0;rounded=1;strokeWidth=1;fillColor=#f8cecc;strokeColor=#b85450;" parent="_vKOgibNYJb6RkX7hGH7-1" vertex="1">
          <mxGeometry x="1835" y="1734.25" width="30" height="60" as="geometry" />
        </mxCell>
        <mxCell id="_vKOgibNYJb6RkX7hGH7-88" style="edgeStyle=none;rounded=0;jumpStyle=arc;orthogonalLoop=1;jettySize=auto;html=1;fontSize=12;fontColor=#000000;dashed=1;dashPattern=1 4;" parent="_vKOgibNYJb6RkX7hGH7-1" edge="1">
          <mxGeometry relative="1" as="geometry">
            <mxPoint x="1680" y="1534.25" as="sourcePoint" />
            <mxPoint x="1680" y="1564.25" as="targetPoint" />
          </mxGeometry>
        </mxCell>
        <mxCell id="_vKOgibNYJb6RkX7hGH7-89" value="includes" style="edgeLabel;html=1;align=center;verticalAlign=middle;resizable=0;points=[];" parent="_vKOgibNYJb6RkX7hGH7-88" vertex="1" connectable="0">
          <mxGeometry x="-0.1916" y="1" relative="1" as="geometry">
            <mxPoint x="-1" as="offset" />
          </mxGeometry>
        </mxCell>
        <mxCell id="_vKOgibNYJb6RkX7hGH7-58" value="Verify valid address" style="ellipse;whiteSpace=wrap;html=1;rounded=1;strokeWidth=1;fontSize=12;fillColor=#dae8fc;strokeColor=#6c8ebf;" parent="_vKOgibNYJb6RkX7hGH7-1" vertex="1">
          <mxGeometry x="1650" y="1654.25" width="120" height="50" as="geometry" />
        </mxCell>
        <mxCell id="_vKOgibNYJb6RkX7hGH7-60" value="MAP API" style="shape=umlActor;verticalLabelPosition=bottom;verticalAlign=top;html=1;outlineConnect=0;rounded=1;strokeWidth=1;fillColor=#f8cecc;strokeColor=#b85450;" parent="_vKOgibNYJb6RkX7hGH7-1" vertex="1">
          <mxGeometry x="1900" y="1694.25" width="30" height="60" as="geometry" />
        </mxCell>
        <mxCell id="_vKOgibNYJb6RkX7hGH7-86" value="Check for existing account" style="ellipse;whiteSpace=wrap;html=1;rounded=1;strokeWidth=1;fontSize=12;fillColor=#dae8fc;strokeColor=#6c8ebf;" parent="_vKOgibNYJb6RkX7hGH7-1" vertex="1">
          <mxGeometry x="1580" y="1344.25" width="120" height="50" as="geometry" />
        </mxCell>
        <mxCell id="_vKOgibNYJb6RkX7hGH7-100" value="Update customer database" style="ellipse;whiteSpace=wrap;html=1;rounded=1;strokeWidth=1;fontSize=12;fillColor=#dae8fc;strokeColor=#6c8ebf;" parent="_vKOgibNYJb6RkX7hGH7-1" vertex="1">
          <mxGeometry x="1630" y="1194.25" width="120" height="50" as="geometry" />
        </mxCell>
        <mxCell id="_vKOgibNYJb6RkX7hGH7-64" style="edgeStyle=none;rounded=0;jumpStyle=arc;orthogonalLoop=1;jettySize=auto;html=1;fontSize=12;fontColor=#000000;" parent="_vKOgibNYJb6RkX7hGH7-1" source="_vKOgibNYJb6RkX7hGH7-7" target="_vKOgibNYJb6RkX7hGH7-49" edge="1">
          <mxGeometry relative="1" as="geometry">
            <Array as="points">
              <mxPoint x="920" y="610" />
            </Array>
          </mxGeometry>
        </mxCell>
        <mxCell id="_vKOgibNYJb6RkX7hGH7-83" style="edgeStyle=none;rounded=0;jumpStyle=arc;orthogonalLoop=1;jettySize=auto;html=1;fontSize=12;fontColor=#000000;" parent="_vKOgibNYJb6RkX7hGH7-1" source="_vKOgibNYJb6RkX7hGH7-8" target="_vKOgibNYJb6RkX7hGH7-37" edge="1">
          <mxGeometry relative="1" as="geometry">
            <Array as="points">
              <mxPoint x="1290" y="1614.25" />
              <mxPoint x="1910" y="1614.25" />
              <mxPoint x="1950" y="1484.25" />
            </Array>
          </mxGeometry>
        </mxCell>
        <mxCell id="_vKOgibNYJb6RkX7hGH7-51" style="edgeStyle=none;rounded=0;orthogonalLoop=1;jettySize=auto;html=1;fontSize=12;fontColor=#000000;" parent="_vKOgibNYJb6RkX7hGH7-1" source="_vKOgibNYJb6RkX7hGH7-18" target="_vKOgibNYJb6RkX7hGH7-50" edge="1">
          <mxGeometry relative="1" as="geometry" />
        </mxCell>
        <mxCell id="_vKOgibNYJb6RkX7hGH7-52" style="edgeStyle=none;rounded=0;orthogonalLoop=1;jettySize=auto;html=1;fontSize=12;fontColor=#000000;" parent="_vKOgibNYJb6RkX7hGH7-1" source="_vKOgibNYJb6RkX7hGH7-37" target="_vKOgibNYJb6RkX7hGH7-18" edge="1">
          <mxGeometry relative="1" as="geometry" />
        </mxCell>
        <mxCell id="_vKOgibNYJb6RkX7hGH7-53" style="edgeStyle=none;rounded=0;orthogonalLoop=1;jettySize=auto;html=1;fontSize=12;fontColor=#000000;" parent="_vKOgibNYJb6RkX7hGH7-1" source="_vKOgibNYJb6RkX7hGH7-37" edge="1">
          <mxGeometry relative="1" as="geometry">
            <mxPoint x="1708.7074619906762" y="1531.2027650516934" as="targetPoint" />
          </mxGeometry>
        </mxCell>
        <mxCell id="_vKOgibNYJb6RkX7hGH7-54" style="edgeStyle=none;rounded=0;orthogonalLoop=1;jettySize=auto;html=1;fontSize=12;fontColor=#000000;" parent="_vKOgibNYJb6RkX7hGH7-1" source="_vKOgibNYJb6RkX7hGH7-37" target="_vKOgibNYJb6RkX7hGH7-35" edge="1">
          <mxGeometry relative="1" as="geometry" />
        </mxCell>
        <mxCell id="_vKOgibNYJb6RkX7hGH7-59" style="edgeStyle=none;rounded=0;orthogonalLoop=1;jettySize=auto;html=1;fontSize=12;fontColor=#000000;" parent="_vKOgibNYJb6RkX7hGH7-1" source="_vKOgibNYJb6RkX7hGH7-37" target="_vKOgibNYJb6RkX7hGH7-58" edge="1">
          <mxGeometry relative="1" as="geometry" />
        </mxCell>
        <mxCell id="_vKOgibNYJb6RkX7hGH7-87" style="edgeStyle=none;rounded=0;jumpStyle=arc;orthogonalLoop=1;jettySize=auto;html=1;fontSize=12;fontColor=#000000;" parent="_vKOgibNYJb6RkX7hGH7-1" source="_vKOgibNYJb6RkX7hGH7-37" edge="1">
          <mxGeometry relative="1" as="geometry">
            <mxPoint x="1729.0180717958856" y="1603.6670799399662" as="targetPoint" />
          </mxGeometry>
        </mxCell>
        <mxCell id="_vKOgibNYJb6RkX7hGH7-101" style="edgeStyle=none;rounded=0;jumpStyle=arc;orthogonalLoop=1;jettySize=auto;html=1;fontSize=12;fontColor=#000000;" parent="_vKOgibNYJb6RkX7hGH7-1" source="_vKOgibNYJb6RkX7hGH7-37" target="_vKOgibNYJb6RkX7hGH7-100" edge="1">
          <mxGeometry relative="1" as="geometry" />
        </mxCell>
        <mxCell id="_vKOgibNYJb6RkX7hGH7-85" style="edgeStyle=none;rounded=0;jumpStyle=arc;orthogonalLoop=1;jettySize=auto;html=1;fontSize=12;fontColor=#000000;" parent="_vKOgibNYJb6RkX7hGH7-1" source="_vKOgibNYJb6RkX7hGH7-41" target="_vKOgibNYJb6RkX7hGH7-37" edge="1">
          <mxGeometry relative="1" as="geometry">
            <Array as="points">
              <mxPoint x="1190" y="1634.25" />
              <mxPoint x="1930" y="1634.25" />
              <mxPoint x="1970" y="1464.25" />
              <mxPoint x="1860" y="1394.25" />
            </Array>
          </mxGeometry>
        </mxCell>
        <mxCell id="_vKOgibNYJb6RkX7hGH7-118" style="edgeStyle=none;rounded=0;jumpStyle=arc;orthogonalLoop=1;jettySize=auto;html=1;startArrow=none;startFill=0;endArrow=classic;endFill=1;fontSize=12;fontColor=#000000;" parent="_vKOgibNYJb6RkX7hGH7-1" source="_vKOgibNYJb6RkX7hGH7-44" target="_vKOgibNYJb6RkX7hGH7-37" edge="1">
          <mxGeometry relative="1" as="geometry">
            <Array as="points">
              <mxPoint x="1280" y="1624.25" />
              <mxPoint x="1920" y="1624.25" />
              <mxPoint x="1960" y="1474.25" />
              <mxPoint x="1870" y="1419.25" />
            </Array>
          </mxGeometry>
        </mxCell>
        <mxCell id="_vKOgibNYJb6RkX7hGH7-61" style="edgeStyle=none;rounded=0;orthogonalLoop=1;jettySize=auto;html=1;fontSize=12;fontColor=#000000;jumpStyle=arc;" parent="_vKOgibNYJb6RkX7hGH7-1" source="_vKOgibNYJb6RkX7hGH7-58" target="_vKOgibNYJb6RkX7hGH7-60" edge="1">
          <mxGeometry relative="1" as="geometry" />
        </mxCell>
        <mxCell id="_vKOgibNYJb6RkX7hGH7-119" value="Use case example - Customer updates account" style="text;html=1;strokeColor=none;fillColor=none;align=center;verticalAlign=middle;whiteSpace=wrap;rounded=0;fontSize=12;fontStyle=2" parent="_vKOgibNYJb6RkX7hGH7-1" vertex="1">
          <mxGeometry x="1190" y="1684.25" width="390" height="20" as="geometry" />
        </mxCell>
        <mxCell id="YlUTerM2iUDrsfmBJ7mQ-4" value="Change email address (username)" style="ellipse;whiteSpace=wrap;html=1;rounded=1;strokeWidth=1;fontSize=12;fillColor=#d5e8d4;strokeColor=#82b366;" vertex="1" parent="_vKOgibNYJb6RkX7hGH7-1">
          <mxGeometry x="1280" y="430" width="120" height="50" as="geometry" />
        </mxCell>
        <mxCell id="YlUTerM2iUDrsfmBJ7mQ-6" value="Gollum" style="shape=umlActor;verticalLabelPosition=bottom;verticalAlign=top;html=1;outlineConnect=0;" vertex="1" parent="_vKOgibNYJb6RkX7hGH7-1">
          <mxGeometry x="830" y="430" width="30" height="60" as="geometry" />
        </mxCell>
        <mxCell id="YlUTerM2iUDrsfmBJ7mQ-11" value="Arbitre/&lt;span style=&quot;background-color: initial;&quot;&gt;Sytème&lt;/span&gt;" style="shape=umlActor;verticalLabelPosition=bottom;verticalAlign=top;html=1;outlineConnect=0;" vertex="1" parent="_vKOgibNYJb6RkX7hGH7-1">
          <mxGeometry x="880" y="290" width="30" height="60" as="geometry" />
        </mxCell>
        <mxCell id="YlUTerM2iUDrsfmBJ7mQ-12" value="Vérification: ressources du joueurs suffisantes pour choisir ce dé" style="whiteSpace=wrap;html=1;aspect=fixed;" vertex="1" parent="_vKOgibNYJb6RkX7hGH7-1">
          <mxGeometry x="940" y="350" width="100" height="100" as="geometry" />
        </mxCell>
      </root>
    </mxGraphModel>
  </diagram>
</mxfile>
